<svg width="7" height="7" viewBox="0 0 7 7" fill="none" xmlns="http://www.w3.org/2000/svg">
<path d="M3.17511 4.74405C3.13818 4.74413 3.10159 4.73691 3.06744 4.72281C3.0333 4.70871 3.00228 4.688 2.97616 4.66188L1.78246 3.4679C1.75557 3.44196 1.73411 3.41092 1.71933 3.3766C1.70456 3.34228 1.69677 3.30536 1.69642 3.268C1.69607 3.23063 1.70317 3.19357 1.71729 3.15898C1.73142 3.12439 1.75229 3.09295 1.77869 3.06651C1.80509 3.04007 1.8365 3.01916 1.87107 3.00498C1.90564 2.99081 1.94269 2.98366 1.98006 2.98396C2.01742 2.98426 2.05435 2.992 2.08869 3.00672C2.12304 3.02144 2.1541 3.04286 2.18008 3.06972L3.17483 4.06447L4.96595 2.27391C5.01871 2.22111 5.09029 2.19143 5.16494 2.19141C5.23959 2.19138 5.31119 2.22101 5.36399 2.27377C5.41679 2.32654 5.44647 2.39812 5.4465 2.47276C5.44653 2.54741 5.4169 2.61901 5.36413 2.67181L3.37406 4.66188C3.34794 4.688 3.31692 4.70871 3.28278 4.72281C3.24864 4.73691 3.21205 4.74413 3.17511 4.74405Z" fill="#2FAB73"/>
</svg>
