<svg width="12" height="13" viewBox="0 0 12 13" fill="none" xmlns="http://www.w3.org/2000/svg">
<path d="M5.741 1.84766C3.15038 1.84766 1.04274 3.95529 1.04274 6.54591C1.04274 9.13653 3.15038 11.2442 5.741 11.2442C8.33162 11.2442 10.4393 9.13653 10.4393 6.54591C10.4393 3.95529 8.33162 1.84766 5.741 1.84766ZM4.80182 8.61925L3.38973 7.21021C3.20615 7.02702 3.20577 6.72971 3.3889 6.54606C3.57215 6.3623 3.86969 6.36196 4.05335 6.5453L4.80088 7.29153L6.95597 5.13644C7.13942 4.95299 7.43685 4.95299 7.6203 5.13644C7.80375 5.31989 7.80375 5.61732 7.6203 5.80077L4.80182 8.61925Z" fill="#2FAB73"/>
</svg>
